<?xml version="1.0" standalone="no"?>
<!DOCTYPE svg PUBLIC "-//W3C//DTD SVG 20010904//EN"
 "http://www.w3.org/TR/2001/REC-SVG-20010904/DTD/svg10.dtd">
<svg version="1.0" xmlns="http://www.w3.org/2000/svg"
 width="131.000000pt" height="33.000000pt" viewBox="0 0 131.000000 33.000000"
 preserveAspectRatio="xMidYMid meet">

<g transform="translate(0.000000,33.000000) scale(0.100000,-0.100000)"
fill="#000000" stroke="none">
<path d="M0 165 l0 -165 655 0 655 0 0 165 0 165 -655 0 -655 0 0 -165z m441
94 c19 -10 19 -12 5 -28 -11 -12 -25 -16 -41 -13 -37 7 -30 -12 9 -26 37 -14
50 -41 36 -77 -14 -36 -69 -47 -105 -21 -28 21 -4 47 36 39 38 -7 37 2 -3 23
-53 27 -63 59 -28 94 22 22 60 26 91 9z m71 -86 c4 -52 28 -56 28 -4 0 37 2
41 25 41 24 0 25 -3 25 -59 l0 -58 -42 -6 c-64 -9 -78 4 -78 68 0 48 3 55 19
55 16 0 20 -8 23 -37z m188 24 c0 -8 4 -7 12 1 7 7 36 12 65 12 l53 0 0 -68
c0 -86 -16 -112 -70 -112 -57 0 -72 8 -59 32 8 15 17 18 39 13 15 -3 30 -3 33
2 3 4 -6 9 -20 10 -33 1 -55 24 -56 57 -1 17 -8 26 -18 26 -19 0 -29 -20 -29
-56 0 -17 -6 -24 -20 -24 -18 0 -20 7 -20 59 l0 59 45 0 c26 0 45 -4 45 -11z
m262 -4 c19 -17 25 -63 8 -63 -5 0 -7 -6 -4 -14 7 -19 -32 -39 -61 -32 -78 20
-70 126 8 126 17 0 39 -7 49 -17z"/>
<path d="M745 160 c-4 -7 -3 -16 3 -22 14 -14 45 -2 40 15 -6 16 -34 21 -43 7z"/>
<path d="M908 123 c7 -3 16 -2 19 1 4 3 -2 6 -13 5 -11 0 -14 -3 -6 -6z"/>
</g>
</svg>
